<svg width="52" height="52" viewBox="0 0 52 52" fill="none" xmlns="http://www.w3.org/2000/svg">
<circle cx="26" cy="26" r="26" fill="#AB136A"/>
<circle cx="26" cy="26" r="24.5" stroke="#FFEDE9"/>
<path d="M35.1016 15.7446C33.9098 14.505 32.4904 13.5222 30.926 12.8536C29.3617 12.1851 27.6838 11.8442 25.9902 11.8507C18.8938 11.8507 13.1105 17.8071 13.104 25.1195C13.104 27.4615 13.6987 29.7399 14.8216 31.7572L13 38.636L19.8315 36.7912C21.7205 37.8529 23.8383 38.4085 25.9902 38.4067H25.9967C33.0947 38.4067 38.8765 32.4503 38.883 25.1312C38.8844 23.3869 38.5509 21.6595 37.9017 20.0486C37.2524 18.4376 36.3019 16.9749 35.1016 15.7446ZM25.9902 36.16C24.0714 36.1585 22.1881 35.6266 20.5367 34.6199L20.1467 34.3788L16.094 35.4737L17.1762 31.4006L16.9227 30.9804C15.8499 29.2232 15.2825 27.1887 15.2863 25.1128C15.2863 19.0426 20.0915 14.0906 25.9967 14.0906C27.4035 14.088 28.797 14.3723 30.0966 14.9272C31.3963 15.482 32.5765 16.2963 33.5692 17.3233C34.5652 18.3464 35.3548 19.5624 35.8925 20.9013C36.4302 22.2402 36.7054 23.6755 36.7022 25.1245C36.6957 31.2165 31.8906 36.16 25.9902 36.16ZM31.8646 27.9001C31.5445 27.7344 29.9633 26.9325 29.666 26.8187C29.3702 26.7099 29.1541 26.6529 28.9428 26.9844C28.7267 27.3142 28.1092 28.0659 27.924 28.2818C27.7387 28.5045 27.547 28.5296 27.2252 28.3655C26.9051 28.1981 25.8667 27.8499 24.6382 26.7166C23.6795 25.8377 23.0376 24.7495 22.8458 24.4197C22.6606 24.0882 22.828 23.9108 22.9888 23.7451C23.1302 23.5977 23.309 23.3567 23.4698 23.1658C23.6323 22.975 23.686 22.8344 23.7916 22.6134C23.8972 22.3891 23.8468 22.1982 23.7672 22.0325C23.686 21.8667 23.0441 20.2312 22.7727 19.5716C22.5127 18.9204 22.2478 19.0108 22.0496 19.0024C21.8643 18.9907 21.6482 18.9907 21.4321 18.9907C21.2689 18.9949 21.1083 19.0339 20.9604 19.105C20.8125 19.1762 20.6804 19.278 20.5725 19.4042C20.2767 19.7356 19.4496 20.5375 19.4496 22.1731C19.4496 23.8087 20.6033 25.3806 20.7658 25.6033C20.9251 25.8259 23.0311 29.1724 26.2632 30.6121C27.027 30.9553 27.6282 31.1579 28.0978 31.3119C28.8697 31.5664 29.5668 31.5279 30.1226 31.4458C30.7401 31.3487 32.0255 30.6423 32.2968 29.8672C32.5633 29.0904 32.5633 28.4275 32.4821 28.2885C32.4025 28.1479 32.1863 28.0659 31.8646 27.9001Z" fill="#FFEDE9"/>
</svg>
